<?xml version="1.0" encoding="UTF-8" standalone="no" ?>
<!DOCTYPE svg PUBLIC "-//W3C//DTD SVG 1.1//EN" "http://www.w3.org/Graphics/SVG/1.1/DTD/svg11.dtd">
<svg xmlns="http://www.w3.org/2000/svg" xmlns:xlink="http://www.w3.org/1999/xlink" version="1.1" width="500" height="500" viewBox="0 0 500 500" xml:space="preserve">
<desc>Created with Fabric.js 4.6.0</desc>
<defs>
</defs>
<g transform="matrix(1 0 0 1 250 250)" id="y_d-pspeTOa4flzDRkTUd"  >
<path style="stroke: rgb(23,195,198); stroke-width: 0; stroke-dasharray: none; stroke-linecap: butt; stroke-dashoffset: 0; stroke-linejoin: miter; stroke-miterlimit: 4; fill: rgb(0,135,161); fill-rule: nonzero; opacity: 1;" vector-effect="non-scaling-stroke"  transform=" translate(-226, -209)" d="M 240.87267 119.9806 C 259.54917 122.75104999999999 276.37095999999997 131.23418999999998 289.50260000000003 143.59456 L 323.61663000000004 114.9695 C 321.49707000000006 104.83955 324.87923000000006 93.89595 333.35684000000003 86.78238999999999 C 345.61968 76.49265 363.92323000000005 78.094 374.21297000000004 90.35683999999999 C 384.50271000000004 102.61967999999999 382.90136000000007 120.92322999999999 370.63852 131.21296999999998 C 361.72297000000003 138.694 349.61440000000005 139.88959 339.71397 135.27228 L 305.64979 163.85551999999998 C 313.49804 177.25767 317.99768 192.85539999999997 317.99768 209.49767999999997 C 317.99768 234.60393999999997 307.75732 257.33297 291.22835 273.73301999999995 L 400.76912999999996 353.3190599999999 C 412.13086999999996 347.0349799999999 426.58458999999993 347.4553699999999 437.77626 355.58658999999994 C 453.18318 366.78036999999995 456.60254 388.36934999999994 445.40876 403.77626999999995 C 434.21497999999997 419.18318999999997 412.626 422.60254999999995 397.21907999999996 411.40876999999995 C 385.35306999999995 402.78761 380.5977 388.00033999999994 384.15245 374.62017999999995 L 268.17071999999996 290.35450999999995 C 259.45077999999995 294.7524599999999 249.92372999999995 297.78110999999996 239.87267999999995 299.15737999999993 L 239.87267999999995 329.5061999999999 C 250.60482999999994 334.2615799999999 258.09767999999997 345.0099199999999 258.09767999999997 357.49767999999995 C 258.09767999999997 374.38888 244.38887999999997 388.09767999999997 227.49767999999997 388.09767999999997 C 210.60647999999998 388.09767999999997 196.89767999999998 374.38888 196.89767999999998 357.49767999999995 C 196.89767999999998 345.80119999999994 203.47105999999997 335.63068999999996 213.12267999999997 330.48126999999994 L 213.12267999999997 298.86067999999995 C 195.37700999999998 296.02459999999996 179.34767999999997 288.02377999999993 166.62620999999996 276.4497099999999 L 130.97871999999995 306.36150999999995 C 133.85513999999995 316.93963999999994 130.58269999999996 328.70791999999994 121.63851999999996 336.2129699999999 C 109.37567999999996 346.5027099999999 91.07212999999996 344.90135999999995 80.78238999999996 332.6385199999999 C 70.49264999999997 320.37567999999993 72.09399999999997 302.0721299999999 84.35683999999996 291.7823899999999 C 92.80483999999996 284.6936799999999 104.11974999999997 283.24844999999993 113.70635999999996 287.0446899999999 L 150.14120999999994 256.4722199999999 C 141.80216999999993 242.77600999999987 136.99767999999995 226.69450999999987 136.99767999999995 209.49768999999986 C 136.99767999999995 184.23025999999987 147.36993999999996 161.37066999999985 164.08611999999994 144.94728999999987 L 52.545149999999936 63.90802999999987 C 41.00040999999994 70.98146999999987 25.848609999999937 70.85810999999987 14.219089999999937 62.40876999999987 C -1.1878300000000621 51.21498999999987 -4.607190000000063 29.626009999999866 6.586589999999937 14.219089999999866 C 17.780369999999937 -1.1878300000001332 39.36934999999994 -4.607190000000134 54.77626999999994 6.586589999999866 C 66.20982999999994 14.893549999999866 71.04158999999994 28.925359999999866 68.19850999999994 41.90701999999987 L 187.27021999999994 128.41766999999987 C 195.57816999999994 124.28493999999988 204.60983999999993 121.39172999999987 214.12268999999995 119.98060999999987 L 214.12268999999995 88.91106999999987 C 202.85885999999994 84.39372999999986 194.89768999999995 73.36976999999987 194.89768999999995 60.49767999999987 C 194.89768999999995 43.60647999999986 208.60648999999995 29.897679999999866 225.49768999999995 29.897679999999866 C 242.38888999999995 29.897679999999866 256.09768999999994 43.60647999999986 256.09768999999994 60.49767999999987 C 256.09768999999994 71.78558999999987 249.97551999999993 81.65227999999986 240.87268999999995 86.95623999999987 z M 184.83767 209.99767 C 184.83767 233.82199 204.17335 253.15767 227.99767 253.15767 C 251.82199 253.15767 271.15767 233.82199 271.15767 209.99767 C 271.15767 186.17335 251.82199 166.83767 227.99767 166.83767 C 204.17335 166.83767 184.83767 186.17335 184.83767 209.99767 z" stroke-linecap="round" />
</g>
</svg>